<svg width="1920" height="218" viewBox="0 0 1920 218" fill="none" xmlns="http://www.w3.org/2000/svg">
<path d="M1920 157C1920 184.614 1897.61 207 1870 207H1079.53C1064.77 207 1050.78 200.486 1041.28 189.201L951.199 82.2007C923.823 49.6808 946.941 0 989.45 0H1870C1897.61 0 1920 22.3858 1920 50V157Z" fill="#F5F5F5"/>
<path d="M0 57.239C0 29.5316 22.5314 7.10745 50.2384 7.23958L815.379 10.8885C830.198 10.9592 844.221 17.5993 853.667 29.0175L942.274 136.13C969.241 168.729 946.055 218 903.748 218H50C22.3857 218 0 195.614 0 168V108V57.239Z" fill="url(#paint0_linear_209_23)"/>
<rect x="1847" width="73" height="207" fill="#F5F5F5"/>
<rect y="7" width="48" height="211" fill="url(#paint1_linear_209_23)"/>
<defs>
<linearGradient id="paint0_linear_209_23" x1="486.388" y1="11" x2="486.388" y2="218" gradientUnits="userSpaceOnUse">
<stop stop-color="#9754E1"/>
<stop offset="1" stop-color="#407FED"/>
</linearGradient>
<linearGradient id="paint1_linear_209_23" x1="24" y1="7" x2="24" y2="218" gradientUnits="userSpaceOnUse">
<stop stop-color="#9754E1"/>
<stop offset="1" stop-color="#407FED"/>
</linearGradient>
</defs>
</svg>
