<svg width="299" height="170" viewBox="0 0 299 170" fill="none" xmlns="http://www.w3.org/2000/svg">
<path d="M30.6 51.784V45.016H50.4V45.376C50.4 53.728 48.024 60.208 43.272 64.816C39.048 68.896 33.6 70.936 26.928 70.936C20.256 70.936 14.808 68.752 10.584 64.384C5.832 59.488 3.456 53.44 3.456 46.24C3.456 42.64 4.104 39.28 5.4 36.16C6.696 32.992 8.376 30.376 10.44 28.312C12.6 26.152 15.24 24.424 18.36 23.128C21.528 21.784 24.912 21.112 28.512 21.112C33.264 21.112 37.44 22.12 41.04 24.136C44.352 26.008 46.944 28.408 48.816 31.336L42.984 35.44C41.256 33.04 39.288 31.216 37.08 29.968C34.728 28.576 31.896 27.88 28.584 27.88C23.448 27.88 19.224 29.536 15.912 32.848C14.328 34.432 13.08 36.424 12.168 38.824C11.256 41.224 10.8 43.72 10.8 46.312C10.8 51.448 12.456 55.792 15.768 59.344C18.792 62.56 22.8 64.168 27.792 64.168C32.064 64.168 35.64 62.752 38.52 59.92C40.872 57.616 42.216 54.904 42.552 51.784H30.6ZM86.1154 21.976V28.888H66.9634V41.056H85.5394V47.968H66.9634V63.088H86.1154V70H59.6194V21.976H86.1154ZM100.443 28.24C105.195 23.488 111.147 21.112 118.299 21.112C125.451 21.112 131.403 23.488 136.155 28.24C140.907 32.992 143.283 38.92 143.283 46.024C143.283 53.128 140.907 59.056 136.155 63.808C131.403 68.56 125.451 70.936 118.299 70.936C111.147 70.936 105.195 68.56 100.443 63.808C95.6914 59.056 93.3154 53.128 93.3154 46.024C93.3154 38.92 95.6914 32.992 100.443 28.24ZM105.627 59.128C108.939 62.488 113.163 64.168 118.299 64.168C123.435 64.168 127.659 62.488 130.971 59.128C134.283 55.72 135.939 51.352 135.939 46.024C135.939 40.696 134.283 36.352 130.971 32.992C127.659 29.584 123.435 27.88 118.299 27.88C113.163 27.88 108.939 29.584 105.627 32.992C102.315 36.352 100.659 40.696 100.659 46.024C100.659 51.352 102.315 55.72 105.627 59.128ZM157.002 104.976H167.586C172.002 104.976 175.506 105.84 178.098 107.568C180.018 108.864 181.482 110.568 182.49 112.68C183.546 114.744 184.074 116.928 184.074 119.232C184.074 123.552 182.514 127.056 179.394 129.744C176.466 132.24 172.554 133.488 167.658 133.488H164.346V153H157.002V104.976ZM164.346 111.744V126.72H167.658C170.73 126.72 173.058 126.048 174.642 124.704C176.226 123.312 177.018 121.464 177.018 119.16C177.018 118.344 176.898 117.576 176.658 116.856C176.466 116.136 176.058 115.368 175.434 114.552C174.858 113.688 173.898 113.016 172.554 112.536C171.21 112.008 169.554 111.744 167.586 111.744H164.346ZM191.596 104.976H198.94V146.088H213.052V153H191.596V104.976ZM219.932 104.976H227.276V133.92C227.276 137.664 227.78 140.424 228.788 142.2C229.604 143.544 230.804 144.72 232.388 145.728C233.972 146.688 235.748 147.168 237.716 147.168C239.684 147.168 241.46 146.688 243.044 145.728C244.628 144.72 245.828 143.544 246.644 142.2C247.652 140.424 248.156 137.664 248.156 133.92V104.976H255.5V135.864C255.5 140.904 254.012 145.056 251.036 148.32C247.58 152.064 243.14 153.936 237.716 153.936C232.292 153.936 227.852 152.064 224.396 148.32C221.42 145.056 219.932 140.904 219.932 135.864V104.976ZM293.681 112.176L287.777 115.632C287.297 114.48 286.577 113.472 285.617 112.608C284.177 111.456 282.449 110.88 280.433 110.88C278.273 110.88 276.593 111.432 275.393 112.536C274.241 113.64 273.665 115.008 273.665 116.64C273.665 119.136 275.393 121.08 278.849 122.472L283.673 124.416C291.209 127.488 294.977 132.192 294.977 138.528C294.977 143.088 293.513 146.808 290.585 149.688C287.705 152.52 284.009 153.936 279.497 153.936C274.841 153.936 271.073 152.328 268.193 149.112C265.841 146.472 264.497 143.352 264.161 139.752L271.433 138.168C271.433 140.472 272.105 142.512 273.449 144.288C274.985 146.208 277.073 147.168 279.713 147.168C281.969 147.168 283.841 146.424 285.329 144.936C286.865 143.448 287.633 141.504 287.633 139.104C287.633 136.896 286.985 135.192 285.689 133.992C284.441 132.792 282.785 131.76 280.721 130.896L276.113 128.952C269.585 126.216 266.321 122.16 266.321 116.784C266.321 113.328 267.569 110.352 270.065 107.856C272.609 105.36 276.041 104.112 280.361 104.112C284.249 104.112 287.465 105.192 290.009 107.352C291.497 108.696 292.721 110.304 293.681 112.176Z" fill="white"/>
<path d="M212.055 3.8902H181.108C177.242 3.8902 174.108 7.0242 174.108 10.8902V20.9843C174.108 24.8503 177.242 27.9843 181.108 27.9843H183.079C184.64 27.9843 186.146 28.5524 187.318 29.5823C188.705 30.8013 189.39 32.7524 190.657 34.0964C191.406 34.8923 192.521 35.5 194 35.5C195.667 35.5 196.742 35.1711 197.419 34.6396C200.46 32.2523 201.134 27.9843 205 27.9843H212.055C213.129 27.9843 214 28.8552 214 29.9294C214 31.0037 214.871 31.8745 215.945 31.8745H217C218.151 31.8745 219.085 30.9412 219.085 29.79V2.0845C219.085 0.933264 218.151 0 217 0H215.945C214.871 0 214 0.87085 214 1.9451C214 3.01935 213.129 3.8902 212.055 3.8902Z" fill="white"/>
<path d="M202.956 36.0157H187.138C184.92 36.0157 183.122 37.8136 183.122 40.0314C183.122 42.2492 184.92 44.0471 187.138 44.0471H202.956C205.174 44.0471 206.972 42.2492 206.972 40.0314C206.972 37.8136 205.174 36.0157 202.956 36.0157Z" fill="white"/>
<path d="M187.265 51.8099L171.733 86.478C171.293 87.4613 170.316 88.0941 169.239 88.0941C167.252 88.0941 165.929 86.0425 166.748 84.2328L182.415 49.6256C182.845 48.6741 183.793 48.0627 184.838 48.0627C186.766 48.0627 188.053 50.0503 187.265 51.8099Z" fill="white"/>
<path d="M198.052 93.0423V51.0205C198.052 49.387 196.727 48.0627 195.094 48.0627C193.46 48.0627 192.136 49.387 192.136 51.0205V93.0423C192.136 94.6758 193.46 96 195.094 96C196.727 96 198.052 94.6758 198.052 93.0423Z" fill="white"/>
<path d="M223.288 84.2922L207.677 49.6293C207.248 48.6759 206.299 48.0627 205.254 48.0627C203.327 48.0627 202.04 50.049 202.828 51.8076L218.371 86.5009C218.805 87.4702 219.768 88.0941 220.83 88.0941C222.786 88.0941 224.091 86.0758 223.288 84.2922Z" fill="white"/>
</svg>
