<svg width="40" height="40" viewBox="0 0 40 40" fill="none" xmlns="http://www.w3.org/2000/svg">
<path d="M26.6666 6.66666H30C30.884 6.66666 31.7319 7.01785 32.357 7.64297C32.9821 8.26809 33.3333 9.11593 33.3333 9.99999V33.3333C33.3333 34.2174 32.9821 35.0652 32.357 35.6903C31.7319 36.3155 30.884 36.6667 30 36.6667H9.99996C9.1159 36.6667 8.26806 36.3155 7.64294 35.6903C7.01782 35.0652 6.66663 34.2174 6.66663 33.3333V9.99999C6.66663 9.11593 7.01782 8.26809 7.64294 7.64297C8.26806 7.01785 9.1159 6.66666 9.99996 6.66666H13.3333" stroke="#150035" stroke-width="2" stroke-linecap="round" stroke-linejoin="round"/>
<path d="M25 3.33334H15C14.0796 3.33334 13.3334 4.07954 13.3334 5.00001V8.33334C13.3334 9.25382 14.0796 10 15 10H25C25.9205 10 26.6667 9.25382 26.6667 8.33334V5.00001C26.6667 4.07954 25.9205 3.33334 25 3.33334Z" stroke="#150035" stroke-width="2" stroke-linecap="round" stroke-linejoin="round"/>
</svg>
