<svg width="199" height="193" viewBox="0 0 199 193" fill="none" xmlns="http://www.w3.org/2000/svg">
<path d="M85.9468 136.371C105.036 130.138 117.284 125.416 131.225 125.252C131.225 125.252 151.081 127.81 159.297 125.252C183.322 117.758 185.415 90.4689 172.444 70.3223C159.013 49.458 134.84 55.4122 134.84 55.4122C105.907 60.7255 86.6041 54.8644 76.5089 49.9839C68.4184 46.0838 58.6409 47.5354 52.4074 53.988C51.0032 55.3805 49.9045 57.0501 49.1811 58.8905C40.3019 83.2056 50.5286 106.967 54.1766 121.478C55.5241 126.857 66.8518 142.605 85.9468 136.371Z" stroke="#150035" stroke-linecap="round" stroke-linejoin="round" stroke-dasharray="2 2"/>
<path d="M94.7876 35.7858C94.0153 44.8896 93.2046 54.1193 93.4073 63.2176C93.8838 85.2595 96.0968 107.23 97.499 129.223C98.3371 142.331 100.928 156.184 98.2878 169.209C95.8174 181.419 86.0947 191.498 73.3592 192.402C59.342 193.399 49.2139 180.312 50.7422 167.15C51.887 157.29 57.8138 148.181 58.1643 138.244C58.6299 124.868 42.9968 126.594 32.8359 117.977C20.8782 107.855 9.07399 94.3962 5.60118 78.7083C4.59878 74.2002 4.34133 69.3964 6.012 65.0636C13.5766 45.4976 45.6863 40.5841 58.1643 57.2142C71.0203 74.3591 65.9535 99.2932 86.993 101.632C108.032 103.971 128.683 95.0097 148.945 89.9429C169.206 84.8761 191.802 97.3486 188.296 123.838C184.79 150.328 152.062 149.583 136.867 131.244C121.672 112.905 128.683 75.5258 131.8 60.6979C133.514 52.5692 137.918 45.273 141.78 38.0206C144.82 32.302 148.654 26.3314 147.668 19.5775C144.76 -0.333596 111.516 -5.96458 101.41 11.2187C101.399 11.2406 96.2666 18.3012 94.7876 35.7858Z" stroke="#150035" stroke-linecap="round" stroke-linejoin="round" stroke-dasharray="2 2"/>
<path d="M99.1533 115.89C94.0308 115.89 89.1183 113.855 85.4962 110.233C81.8741 106.611 79.8392 101.698 79.8392 96.5758V96.5758C79.8392 91.4534 81.8741 86.5408 85.4962 82.9187C89.1183 79.2966 94.0308 77.2617 99.1533 77.2617V77.2617C104.276 77.2617 109.188 79.2966 112.81 82.9187C116.432 86.5408 118.467 91.4534 118.467 96.5758C118.467 101.698 116.432 106.611 112.81 110.233C109.188 113.855 104.276 115.89 99.1533 115.89V115.89Z" fill="#150035" stroke="#150035" stroke-miterlimit="10"/>
<path d="M96.0913 108.248H100.797V96.4768H104.083L104.428 92.5329H100.797V90.2761C100.797 89.3504 100.983 88.9834 101.892 88.9834H104.434V84.8916H101.18C97.6798 84.8916 96.1022 86.4308 96.1022 89.3778V92.5219H93.6592V96.5151H96.1022L96.0913 108.248Z" fill="url(#paint0_linear_132_2351)"/>
<path d="M106.723 80.7451C108.534 81.6097 110.183 82.7788 111.598 84.2015" stroke="white" stroke-width="0.75" stroke-linecap="round" stroke-linejoin="round"/>
<path d="M88.2802 82.8045C88.6801 82.4868 89.1018 82.1855 89.54 81.8952C91.8762 80.3632 94.5447 79.4117 97.3231 79.1201C100.102 78.8286 102.909 79.2054 105.513 80.2191" stroke="white" stroke-width="0.75" stroke-linecap="round" stroke-linejoin="round"/>
<path d="M97.017 113.988C94.4864 113.678 92.054 112.819 89.8894 111.472C87.7249 110.125 85.8802 108.322 84.4842 106.188V106.188C82.5113 103.181 81.5113 99.6389 81.6201 96.0436C81.7289 92.4484 82.9411 88.9736 85.0922 86.0908" stroke="white" stroke-width="0.75" stroke-linecap="round" stroke-linejoin="round"/>
<path d="M103.502 113.578C102.361 113.879 101.192 114.063 100.013 114.126" stroke="white" stroke-width="0.75" stroke-linecap="round" stroke-linejoin="round"/>
<path d="M111.598 84.2021C112.431 85.0402 113.179 85.9575 113.833 86.941V86.941C115.098 88.868 115.971 91.0256 116.401 93.2902C116.83 95.5548 116.81 97.882 116.339 100.139C115.868 102.395 114.957 104.537 113.658 106.441C112.358 108.344 110.696 109.973 108.766 111.234C107.499 112.062 106.132 112.725 104.697 113.206" stroke="white" stroke-width="0.75" stroke-linecap="round" stroke-linejoin="round"/>
<path d="M179.181 115.89C174.059 115.89 169.146 113.855 165.524 110.233C161.902 106.611 159.867 101.698 159.867 96.5758V96.5758C159.867 91.4534 161.902 86.5408 165.524 82.9187C169.146 79.2966 174.059 77.2617 179.181 77.2617V77.2617C184.304 77.2617 189.216 79.2966 192.838 82.9187C196.46 86.5408 198.495 91.4534 198.495 96.5758V96.5758C198.495 101.698 196.46 106.611 192.838 110.233C189.216 113.855 184.304 115.89 179.181 115.89V115.89Z" fill="#150035" stroke="#150035" stroke-miterlimit="10"/>
<path d="M169.995 111.513C168.285 110.463 166.77 109.125 165.515 107.559" stroke="white" stroke-width="0.75" stroke-linecap="round" stroke-linejoin="round"/>
<path d="M188.553 111.42C188.115 111.694 187.666 111.968 187.2 112.192C184.716 113.467 181.962 114.13 179.17 114.125C176.377 114.12 173.626 113.448 171.146 112.165" stroke="white" stroke-width="0.75" stroke-linecap="round" stroke-linejoin="round"/>
<path d="M183.185 79.4902C185.669 80.0662 187.996 81.178 190.005 82.7477C192.014 84.3174 193.655 86.3071 194.814 88.5776V88.5776C196.456 91.7773 197.074 95.4047 196.584 98.9676C196.094 102.53 194.52 105.856 192.075 108.494" stroke="white" stroke-width="0.75" stroke-linecap="round" stroke-linejoin="round"/>
<path d="M176.678 79.2066C177.846 79.0373 179.028 78.9878 180.205 79.0587" stroke="white" stroke-width="0.75" stroke-linecap="round" stroke-linejoin="round"/>
<path d="M165.515 107.558C164.774 106.631 164.128 105.633 163.586 104.578C162.534 102.528 161.896 100.29 161.709 97.9934C161.522 95.6964 161.789 93.3852 162.497 91.1919C163.204 88.9986 164.336 86.9662 165.83 85.2112C167.323 83.4561 169.148 82.0128 171.2 80.9638V80.9638C172.547 80.2738 173.978 79.7601 175.456 79.4355" stroke="white" stroke-width="0.75" stroke-linecap="round" stroke-linejoin="round"/>
<path d="M179.181 87.8925C182.013 87.8925 182.347 87.8925 183.465 87.9528C184.136 87.9611 184.802 88.0852 185.431 88.3198C185.887 88.4977 186.301 88.7681 186.647 89.1142C186.993 89.4602 187.264 89.8742 187.441 90.3301C187.674 90.9599 187.796 91.6251 187.803 92.2965C187.852 93.3921 187.863 93.7481 187.863 96.5745C187.863 99.401 187.863 99.7351 187.803 100.853C187.796 101.524 187.674 102.189 187.441 102.819C187.266 103.276 186.996 103.692 186.65 104.038C186.304 104.384 185.888 104.654 185.431 104.829C184.802 105.064 184.136 105.188 183.465 105.196C182.369 105.246 182.013 105.257 179.181 105.257C176.349 105.257 176.021 105.257 174.903 105.196C174.231 105.188 173.566 105.064 172.937 104.829C172.478 104.659 172.063 104.389 171.721 104.041C171.381 103.695 171.123 103.277 170.965 102.819C170.732 102.189 170.61 101.524 170.603 100.853C170.548 99.757 170.538 99.401 170.538 96.5745C170.538 93.7481 170.538 93.414 170.603 92.2965C170.61 91.6251 170.732 90.9599 170.965 90.3301C171.134 89.8697 171.405 89.4539 171.759 89.114C172.1 88.7619 172.516 88.4905 172.975 88.3198C173.605 88.0852 174.27 87.9611 174.942 87.9528C176.037 87.9035 176.393 87.8925 179.22 87.8925H179.181ZM179.22 85.9863C176.344 85.9863 175.988 85.9863 174.837 86.0466C173.959 86.0653 173.091 86.232 172.268 86.5396C171.563 86.8072 170.924 87.2239 170.395 87.7611C169.855 88.2904 169.438 88.9318 169.174 89.6399C168.863 90.4617 168.697 91.3306 168.681 92.2089C168.626 93.3373 168.615 93.6988 168.615 96.591C168.615 99.4832 168.615 99.8282 168.681 100.973C168.697 101.853 168.863 102.724 169.174 103.548C169.446 104.25 169.862 104.888 170.395 105.421C170.928 105.954 171.566 106.37 172.268 106.642C173.091 106.95 173.959 107.117 174.837 107.135C175.971 107.185 176.327 107.196 179.22 107.196C182.112 107.196 182.457 107.196 183.602 107.135C184.479 107.116 185.348 106.949 186.171 106.642C186.873 106.37 187.511 105.954 188.044 105.421C188.577 104.888 188.993 104.25 189.265 103.548C189.576 102.724 189.742 101.853 189.758 100.973C189.813 99.8447 189.824 99.4832 189.824 96.591C189.824 93.6988 189.824 93.3537 189.758 92.2089C189.742 91.3306 189.576 90.4617 189.265 89.6399C189.001 88.9318 188.584 88.2904 188.044 87.7611C187.515 87.2239 186.876 86.8072 186.171 86.5396C185.348 86.2326 184.479 86.066 183.602 86.0466C182.468 85.9973 182.106 85.9863 179.22 85.9863" fill="url(#paint1_linear_132_2351)"/>
<path d="M179.181 91.1367C178.107 91.1443 177.059 91.4697 176.17 92.072C175.28 92.6742 174.589 93.5264 174.183 94.5209C173.778 95.5154 173.675 96.6079 173.889 97.6604C174.104 98.713 174.625 99.6786 175.387 100.435C176.149 101.192 177.118 101.707 178.172 101.913C179.226 102.12 180.318 102.01 181.31 101.597C182.301 101.185 183.149 100.487 183.745 99.5938C184.341 98.7002 184.659 97.6501 184.659 96.576C184.659 95.1334 184.086 93.7499 183.066 92.7298C182.046 91.7098 180.662 91.1367 179.22 91.1367H179.181ZM179.181 100.136C178.482 100.136 177.799 99.9292 177.218 99.541C176.637 99.1528 176.184 98.601 175.917 97.9554C175.65 97.3098 175.58 96.5995 175.716 95.9141C175.852 95.2288 176.189 94.5992 176.683 94.1051C177.177 93.611 177.807 93.2745 178.492 93.1382C179.177 93.0019 179.888 93.0718 180.533 93.3392C181.179 93.6067 181.731 94.0595 182.119 94.6405C182.507 95.2215 182.714 95.9046 182.714 96.6034C182.715 97.0675 182.624 97.5273 182.447 97.9563C182.269 98.3852 182.009 98.775 181.681 99.1032C181.353 99.4314 180.963 99.6917 180.534 99.869C180.105 100.046 179.645 100.137 179.181 100.136Z" fill="url(#paint2_linear_132_2351)"/>
<path d="M186.121 90.9222C186.121 91.1735 186.047 91.4192 185.907 91.6282C185.767 91.8372 185.569 92.0001 185.337 92.0962C185.105 92.1924 184.849 92.2176 184.603 92.1686C184.356 92.1195 184.13 91.9985 183.952 91.8208C183.774 91.643 183.653 91.4166 183.604 91.1701C183.555 90.9236 183.58 90.6681 183.676 90.4359C183.773 90.2036 183.935 90.0052 184.144 89.8655C184.353 89.7259 184.599 89.6514 184.85 89.6514C185.188 89.6514 185.511 89.7853 185.749 90.0236C185.987 90.2619 186.121 90.5851 186.121 90.9222Z" fill="url(#paint3_linear_132_2351)"/>
<path d="M99.1533 186.459C94.0308 186.459 89.1183 184.424 85.4962 180.802C81.8741 177.18 79.8392 172.267 79.8392 167.145V167.145C79.8392 162.022 81.8739 157.109 85.4958 153.486C89.1178 149.863 94.0303 147.827 99.1533 147.825V147.825C104.276 147.827 109.189 149.863 112.811 153.486C116.433 157.109 118.467 162.022 118.467 167.145V167.145C118.467 172.267 116.432 177.18 112.81 180.802C109.188 184.424 104.276 186.459 99.1533 186.459V186.459Z" fill="#150035" stroke="#150035" stroke-miterlimit="10"/>
<path d="M90.0549 152.136C91.768 151.091 93.649 150.35 95.6147 149.945" stroke="white" stroke-width="0.75" stroke-linecap="round" stroke-linejoin="round"/>
<path d="M81.6797 168.696C81.6359 168.186 81.6139 167.666 81.6139 167.145C81.6119 164.352 82.2774 161.599 83.5552 159.115C84.8329 156.631 86.6858 154.488 88.9594 152.865" stroke="white" stroke-width="0.75" stroke-linecap="round" stroke-linejoin="round"/>
<path d="M112.541 178.468C110.897 180.417 108.847 181.983 106.534 183.056C104.222 184.129 101.703 184.683 99.1533 184.68C95.5588 184.68 92.0507 183.578 89.1031 181.52C86.1555 179.463 83.9104 176.551 82.6711 173.177" stroke="white" stroke-width="0.75" stroke-linecap="round" stroke-linejoin="round"/>
<path d="M115.761 172.82C115.379 173.935 114.886 175.009 114.288 176.025" stroke="white" stroke-width="0.75" stroke-linecap="round" stroke-linejoin="round"/>
<path d="M95.6147 149.985C96.7791 149.747 97.9647 149.627 99.1533 149.629V149.629C103.802 149.629 108.26 151.476 111.548 154.763C114.835 158.05 116.682 162.508 116.682 167.157C116.682 168.671 116.487 170.179 116.101 171.643" stroke="white" stroke-width="0.75" stroke-linecap="round" stroke-linejoin="round"/>
<path d="M20.3305 115.89C17.7927 115.892 15.2795 115.394 12.9343 114.424C10.5891 113.455 8.45798 112.032 6.66276 110.239C4.86755 108.445 3.44341 106.315 2.47176 103.971C1.50012 101.626 0.999999 99.1135 1 96.5758C0.999999 94.038 1.50012 91.5252 2.47176 89.1808C3.44341 86.8364 4.86755 84.7066 6.66276 82.9129C8.45798 81.1192 10.5891 79.6969 12.9343 78.7272C15.2795 77.7575 17.7927 77.2596 20.3305 77.2617V77.2617C25.4529 77.2617 30.3655 79.2966 33.9876 82.9187C37.6097 86.5408 39.6445 91.4534 39.6445 96.5758C39.6445 101.698 37.6097 106.611 33.9876 110.233C30.3655 113.855 25.4529 115.89 20.3305 115.89V115.89Z" fill="#150035" stroke="#150035" stroke-miterlimit="10"/>
<path d="M11.2157 81.5729C12.9285 80.5267 14.8096 79.7854 16.7755 79.3818" stroke="white" stroke-width="0.75" stroke-linecap="round" stroke-linejoin="round"/>
<path d="M2.83501 98.1307C2.79118 97.6158 2.76928 97.1009 2.76928 96.5751C2.76721 93.7817 3.43277 91.0283 4.7105 88.5443C5.98823 86.0603 7.84111 83.9177 10.1147 82.2949" stroke="white" stroke-width="0.75" stroke-linecap="round" stroke-linejoin="round"/>
<path d="M33.7013 107.913C32.057 109.856 30.0091 111.418 27.7 112.49C25.391 113.562 22.8762 114.118 20.3305 114.119C16.7351 114.124 13.2253 113.022 10.2769 110.965C7.32855 108.907 5.08427 105.993 3.84836 102.616" stroke="white" stroke-width="0.75" stroke-linecap="round" stroke-linejoin="round"/>
<path d="M36.9167 102.251C36.5379 103.369 36.0441 104.445 35.4432 105.461" stroke="white" stroke-width="0.75" stroke-linecap="round" stroke-linejoin="round"/>
<path d="M16.7755 79.3873C17.9399 79.149 19.1255 79.0297 20.314 79.0313V79.0313C24.9629 79.0313 29.4213 80.878 32.7085 84.1652C35.9957 87.4524 37.8424 91.9108 37.8424 96.5596C37.8434 98.0738 37.6483 99.5817 37.2618 101.046" stroke="white" stroke-width="0.75" stroke-linecap="round" stroke-linejoin="round"/>
<path d="M10.0216 103.038C11.9521 104.281 14.2001 104.941 16.4962 104.938C24.3346 104.938 28.7605 98.3159 28.4976 92.3782C29.3222 91.7772 30.0342 91.0355 30.601 90.1871C29.8309 90.5257 29.0151 90.749 28.1799 90.8499C29.061 90.3239 29.7194 89.494 30.0313 88.5164C29.2023 89.0059 28.2968 89.3521 27.3528 89.5408C26.7179 88.8632 25.8774 88.4137 24.9614 88.2619C24.0453 88.1101 23.1048 88.2644 22.2853 88.701C21.4658 89.1376 20.813 89.832 20.428 90.677C20.0429 91.5219 19.947 92.4702 20.1552 93.3751C18.4766 93.2912 16.8345 92.8547 15.3358 92.094C13.8371 91.3333 12.5154 90.2655 11.4568 88.9601C10.9169 89.8903 10.7513 90.991 10.9934 92.0388C11.2355 93.0866 11.8673 94.003 12.7604 94.6021C12.0885 94.5753 11.4329 94.3874 10.8487 94.0543C10.8356 95.0386 11.1666 95.9965 11.7847 96.7626C12.4028 97.5288 13.2691 98.0549 14.2339 98.2502C13.612 98.4172 12.9603 98.4416 12.3277 98.3214C12.5972 99.1602 13.1224 99.8937 13.8296 100.419C14.5368 100.945 15.3906 101.236 16.2716 101.252C15.3988 101.946 14.3973 102.462 13.3247 102.768C12.2522 103.075 11.1297 103.166 10.0216 103.038V103.038Z" fill="url(#paint4_linear_132_2351)"/>
<path d="M99.1533 40.842C94.0308 40.842 89.1183 38.8071 85.4962 35.185C81.8741 31.5629 79.8392 26.6503 79.8392 21.5279V21.5279C79.8392 16.4055 81.8741 11.4929 85.4962 7.87082C89.1183 4.24873 94.0308 2.21387 99.1533 2.21387V2.21387C104.276 2.21387 109.188 4.24873 112.81 7.87082C116.432 11.4929 118.467 16.4055 118.467 21.5279C118.467 26.6503 116.432 31.5629 112.81 35.185C109.188 38.8071 104.276 40.842 99.1533 40.842Z" fill="#150035" stroke="#150035" stroke-miterlimit="10"/>
<path fill-rule="evenodd" clip-rule="evenodd" d="M110.284 21.0547C110.308 18.2945 109.236 15.6375 107.301 13.6682C105.367 11.699 102.73 10.5788 99.9694 10.5541C97.2092 10.5294 94.5522 11.6022 92.583 13.5366C90.6137 15.4709 89.4935 18.1082 89.4688 20.8685C89.4688 21.0164 89.4688 21.1697 89.4688 21.3176C89.468 23.1988 89.9834 25.0442 90.9588 26.6528L89.1018 32.2126L94.8643 30.3776C96.443 31.2464 98.2203 31.6904 100.022 31.6662C101.824 31.6419 103.589 31.1502 105.144 30.2392C106.698 29.3282 107.99 28.0291 108.892 26.4691C109.794 24.909 110.275 23.1415 110.289 21.3395C110.289 21.2574 110.289 21.1423 110.284 21.0547ZM99.8763 29.9996C98.1663 30.0039 96.4931 29.5027 95.067 28.559L91.7037 29.6546L92.7992 26.4282C91.7239 24.9501 91.1483 23.1674 91.1559 21.3395C91.1559 21.0602 91.1559 20.7918 91.1998 20.5015C91.4597 18.3616 92.4992 16.3926 94.1195 14.9708C95.7397 13.5491 97.8271 12.7743 99.9827 12.7947C102.138 12.815 104.211 13.629 105.804 15.0811C107.397 16.5331 108.399 18.5214 108.619 20.6658C108.64 20.8922 108.651 21.1168 108.651 21.3395C108.64 23.6528 107.71 25.8668 106.067 27.4949C104.423 29.1229 102.201 30.0317 99.8873 30.0216L99.8763 29.9996Z" fill="url(#paint5_linear_132_2351)"/>
<path fill-rule="evenodd" clip-rule="evenodd" d="M104.653 23.4077C104.395 23.2817 103.146 22.6682 102.911 22.5861C102.675 22.5039 102.506 22.4601 102.363 22.7121C102.221 22.964 101.7 23.5337 101.558 23.698C101.415 23.8624 101.257 23.8898 101.01 23.7638C100.258 23.4679 99.5648 23.0414 98.9615 22.5039C98.4026 21.997 97.9242 21.4077 97.5428 20.7566C97.4004 20.5046 97.5428 20.3676 97.6579 20.2417C97.7729 20.1157 97.9098 19.9459 98.0413 19.798L98.1344 19.6775C98.1892 19.5844 98.233 19.4967 98.2933 19.3762C98.3302 19.3081 98.3495 19.2318 98.3495 19.1544C98.3495 19.0769 98.3302 19.0006 98.2933 18.9325C98.2275 18.8065 97.7455 17.5576 97.5045 17.0537C97.2635 16.5498 97.0772 16.6319 96.9567 16.6319C96.8362 16.6319 96.639 16.6319 96.4692 16.6319C96.3393 16.6345 96.2113 16.6641 96.0935 16.7187C95.9756 16.7734 95.8704 16.8521 95.7845 16.9496C95.4983 17.2203 95.2716 17.5476 95.1188 17.9107C94.9661 18.2737 94.8906 18.6646 94.8971 19.0585C94.8994 19.3518 94.9436 19.6432 95.0286 19.924C95.2268 20.5569 95.5346 21.1502 95.9379 21.6768C96.0639 21.8411 97.7017 24.4813 100.32 25.5111C102.938 26.5409 102.911 26.1794 103.382 26.1356C103.737 26.0685 104.074 25.9269 104.371 25.7201C104.667 25.5133 104.916 25.2461 105.102 24.936C105.271 24.5581 105.322 24.1383 105.25 23.7309C105.08 23.5994 104.91 23.5337 104.653 23.4077Z" fill="url(#paint6_linear_132_2351)"/>
<path d="M90.0549 6.51917C91.768 5.4737 93.649 4.73243 95.6147 4.32812" stroke="white" stroke-width="0.75" stroke-linecap="round" stroke-linejoin="round"/>
<path d="M81.6797 23.0774C81.6358 22.5679 81.6139 22.0476 81.6139 21.5272C81.6119 18.7339 82.2774 15.9805 83.5552 13.4965C84.8329 11.0125 86.6858 8.86983 88.9594 7.24707" stroke="white" stroke-width="0.75" stroke-linecap="round" stroke-linejoin="round"/>
<path d="M112.541 32.8652C110.896 34.8124 108.846 36.3767 106.533 37.4487C104.221 38.5207 101.702 39.0745 99.1533 39.0713V39.0713C95.5588 39.0719 92.0507 37.9691 89.1031 35.912C86.1555 33.8548 83.9104 30.9424 82.6711 27.5684" stroke="white" stroke-width="0.75" stroke-linecap="round" stroke-linejoin="round"/>
<path d="M115.761 27.2031C115.378 28.3194 114.885 29.3947 114.288 30.413" stroke="white" stroke-width="0.75" stroke-linecap="round" stroke-linejoin="round"/>
<path d="M95.6147 4.33946C96.7791 4.10112 97.9647 3.98182 99.1533 3.98341V3.98341C103.802 3.98341 108.26 5.83015 111.548 9.11735C114.835 12.4046 116.682 16.863 116.682 21.5118C116.682 23.0259 116.487 24.5338 116.101 25.9979" stroke="white" stroke-width="0.75" stroke-linecap="round" stroke-linejoin="round"/>
<path d="M139.299 153.248C151.983 153.248 162.266 142.965 162.266 130.28C162.266 117.595 151.983 107.312 139.299 107.312C126.614 107.312 116.331 117.595 116.331 130.28C116.331 142.965 126.614 153.248 139.299 153.248Z" fill="url(#paint7_linear_132_2351)" stroke="#150035" stroke-miterlimit="10"/>
<path opacity="0.3" d="M139.299 153.248C151.983 153.248 162.266 142.965 162.266 130.28C162.266 117.595 151.983 107.312 139.299 107.312C126.614 107.312 116.331 117.595 116.331 130.28C116.331 142.965 126.614 153.248 139.299 153.248Z" fill="white" stroke="#150035" stroke-miterlimit="10"/>
<path d="M139.299 107.312C139.299 107.312 127.681 106.053 125.829 111.799C123.978 117.545 131.789 116.526 130.556 119.193C129.324 121.861 124.186 125.334 126.24 129.256C128.294 133.178 131.992 137.472 127.883 136.037C123.775 134.602 122.751 134.186 123.572 138.705C124.394 143.224 128.705 144.456 135.689 143.837C142.673 143.218 142.054 146.51 145.954 146.921C149.854 147.332 153.76 145.07 153.76 139.318C153.76 133.567 149.038 134.805 153.349 131.929C157.66 129.053 156.843 121.658 155.611 119.401C154.379 117.145 151.914 118.169 151.914 115.293C151.914 112.418 145.987 106.929 139.299 107.312Z" fill="#150035" stroke="#150035" stroke-miterlimit="10"/>
<path d="M132.906 109.997C132.906 109.997 128.606 109.422 128.749 112.144C128.891 114.867 136.352 120.174 143.38 120.322C150.407 120.47 151.119 116.877 150.117 116.159" stroke="white" stroke-width="0.75" stroke-linecap="round" stroke-linejoin="round"/>
<path d="M137.354 112.276C137.354 112.276 133.914 112.704 134.341 115.015C134.769 117.327 136.921 118.455 140.224 119.748" stroke="white" stroke-width="0.75" stroke-linecap="round" stroke-linejoin="round"/>
<path d="M154.559 126.325C154.559 126.325 154.274 129.913 149.832 132.208C145.39 134.503 141.386 137.932 145.22 139.663C149.054 141.394 151.245 143.388 149.81 143.821" stroke="white" stroke-width="0.75" stroke-linecap="round" stroke-linejoin="round"/>
<path d="M132.621 136.936C132.621 136.936 130.901 140.951 128.322 140.222C125.742 139.494 124.876 137.483 126.602 137.483C128.327 137.483 128.464 138.343 128.464 138.343" stroke="white" stroke-width="0.75" stroke-linecap="round" stroke-linejoin="round"/>
<path d="M146.315 120.502C146.315 120.502 149.838 120.447 149.262 123.887C148.687 127.327 145.39 127.617 144.53 130.197" stroke="white" stroke-width="0.75" stroke-linecap="round" stroke-linejoin="round"/>
<path d="M139.299 153.269C144.454 153.275 149.459 151.538 153.502 148.339C151.892 147.151 149.021 145.053 147.351 143.957C144.935 142.347 141.714 137.335 137.414 138.228C133.964 138.951 124.728 142.928 121.212 144.472C123.36 147.216 126.106 149.434 129.24 150.959C132.374 152.483 135.814 153.273 139.299 153.269V153.269Z" fill="white" stroke="#150035" stroke-miterlimit="10"/>
<path d="M136.713 137.471C136.713 137.471 130.348 139.317 129.527 144.658C128.705 149.998 134.763 146.148 134.763 146.148C134.763 146.148 137.946 150.82 140.821 149.385C143.697 147.95 144.108 143.015 142.465 139.728C140.821 136.441 136.713 137.471 136.713 137.471Z" fill="white" stroke="#150035" stroke-miterlimit="10"/>
<path d="M136.543 133.55C136.577 135.3 136.339 137.044 135.837 138.721C135.032 141.202 132.408 144.62 134.741 146.154C137.075 147.688 140.066 142.807 140.843 138.71C141.621 134.613 142.185 129.716 142.185 129.716L136.543 133.55Z" fill="white"/>
<g style="mix-blend-mode:multiply" opacity="0.5">
<path d="M136.001 138.175C136.753 138.447 137.535 138.631 138.329 138.722C139.041 138.804 139.326 138.651 139.425 138.47C139.337 139.495 139.003 142.305 137.836 144.375C137.48 145.011 137.19 145.547 136.96 146.019C138.691 144.852 140.307 141.598 140.854 138.728C141.632 134.636 142.174 129.75 142.174 129.75L136.532 133.584C136.56 135.131 136.381 136.675 136.001 138.175V138.175Z" fill="url(#paint8_linear_132_2351)"/>
</g>
<path d="M136.543 133.55C136.577 135.3 136.339 137.044 135.837 138.721C135.032 141.202 132.408 144.62 134.741 146.154C137.075 147.688 140.066 142.807 140.843 138.71C141.621 134.613 142.185 129.716 142.185 129.716L136.543 133.55Z" stroke="#150035" stroke-miterlimit="10"/>
<path d="M133.098 117.665C133.098 117.665 131.126 125.881 131.126 128.943C131.126 132.005 133.942 135.752 137.513 136.064C142.07 136.431 143.746 130.307 144.732 126.818C145.587 123.789 146.168 121.171 146.31 120.524C139.381 123.143 133.098 117.665 133.098 117.665Z" fill="white"/>
<g style="mix-blend-mode:multiply" opacity="0.5">
<path d="M146.315 120.501C145.626 120.764 144.913 120.957 144.185 121.076C143.861 123.163 142.87 128.296 140.597 131.451C138.669 134.129 136.604 135.099 135.431 135.449C136.084 135.775 136.792 135.975 137.518 136.041C142.076 136.408 143.752 130.284 144.738 126.795" fill="url(#paint9_linear_132_2351)"/>
</g>
<path d="M133.098 117.665C133.098 117.665 131.126 125.881 131.126 128.943C131.126 132.005 133.942 135.752 137.513 136.064C142.07 136.431 143.746 130.307 144.732 126.818C145.587 123.789 146.168 121.171 146.31 120.524C139.381 123.143 133.098 117.665 133.098 117.665Z" stroke="#150035" stroke-miterlimit="10"/>
<path d="M136.856 123.482C136.605 124.376 136.211 125.223 135.689 125.991C134.977 126.884 133.454 126.079 133.903 126.616C134.151 126.93 134.462 127.19 134.816 127.378C135.169 127.567 135.558 127.68 135.957 127.711" stroke="#150035" stroke-linecap="round" stroke-linejoin="round"/>
<path d="M133.41 129.41C133.41 129.41 134.752 131.382 137.524 130.396" stroke="#150035" stroke-linecap="round" stroke-linejoin="round"/>
<path d="M135.552 122.847C135.47 123.334 135.185 123.696 134.917 123.646C134.648 123.597 134.495 123.17 134.577 122.682C134.659 122.195 134.944 121.839 135.212 121.883C135.481 121.926 135.634 122.359 135.552 122.847Z" fill="#150035"/>
<path d="M140.066 124.134C139.945 124.616 139.638 124.955 139.375 124.89C139.112 124.824 138.992 124.386 139.107 123.904C139.222 123.422 139.529 123.087 139.797 123.148C140.066 123.208 140.181 123.657 140.066 124.134Z" fill="#150035"/>
<path d="M133.717 120.437C133.717 120.437 134.435 118.739 136.582 119.725" stroke="#150035" stroke-linecap="round" stroke-linejoin="round"/>
<path d="M139.08 121.166C139.08 121.166 141.052 120.541 141.588 122.508" stroke="#150035" stroke-linecap="round" stroke-linejoin="round"/>
<path d="M59.3475 153.249C72.0322 153.249 82.3151 142.966 82.3151 130.281C82.3151 117.596 72.0322 107.313 59.3475 107.313C46.6628 107.313 36.3799 117.596 36.3799 130.281C36.3799 142.966 46.6628 153.249 59.3475 153.249Z" fill="url(#paint10_linear_132_2351)" stroke="#150035" stroke-miterlimit="10"/>
<path opacity="0.3" d="M59.3475 153.249C72.0322 153.249 82.3151 142.966 82.3151 130.281C82.3151 117.596 72.0322 107.313 59.3475 107.313C46.6628 107.313 36.3799 117.596 36.3799 130.281C36.3799 142.966 46.6628 153.249 59.3475 153.249Z" fill="white" stroke="#150035" stroke-miterlimit="10"/>
<path d="M44.9797 148.177C49.4838 151.805 55.1921 153.599 60.962 153.199C66.7319 152.798 72.1379 150.234 76.098 146.019C73.5126 142.688 68.2157 136.98 62.3218 136.98C55.7816 136.98 48.0143 144.786 44.9797 148.177Z" fill="white" stroke="#150035" stroke-miterlimit="10"/>
<path d="M56.8059 135.283C56.8059 135.283 52.9113 135.726 52.5772 138.733C52.243 141.741 54.5765 146.747 54.8011 147.3C55.0257 147.854 60.0322 142.853 61.922 142.853C63.8117 142.853 68.7087 145.52 68.7087 145.52C68.7087 145.52 67.1531 139.287 64.3705 136.948C61.5878 134.609 57.5782 134.39 56.8059 135.283Z" fill="white" stroke="#150035" stroke-miterlimit="10"/>
<path opacity="0.5" d="M51.6843 124.239C51.6843 124.239 50.0136 122.568 49.1263 123.905C48.2389 125.242 49.0112 126.797 50.2218 127.8C51.4324 128.802 53.3386 128.895 53.3386 128.134C53.3386 127.372 51.6843 124.239 51.6843 124.239Z" fill="url(#paint11_linear_132_2351)" stroke="#150035" stroke-miterlimit="10"/>
<path d="M51.6843 124.239C51.6843 124.239 50.0136 122.568 49.1263 123.905C48.2389 125.242 49.0112 126.797 50.2218 127.8C51.4324 128.802 53.3386 128.895 53.3386 128.134C53.3386 127.372 51.6843 124.239 51.6843 124.239Z" stroke="#150035" stroke-miterlimit="10"/>
<path d="M66.0466 120.368C66.0466 120.368 66.8244 118.363 67.9364 120.478C69.0483 122.592 66.934 124.482 66.934 124.482L66.0466 120.368Z" fill="white" stroke="#150035" stroke-miterlimit="10"/>
<path d="M53.355 128.156C53.355 128.156 55.5789 136.17 56.1376 138.953C56.6963 141.735 59.2544 145.745 61.1441 144.43C63.0339 143.116 62.9298 140.645 61.8124 138.531C61.0768 137.069 60.4808 135.542 60.0322 133.968L53.355 128.156Z" fill="white"/>
<g style="mix-blend-mode:multiply" opacity="0.5">
<path d="M61.8124 138.51C61.0768 137.048 60.4808 135.521 60.0322 133.947L53.355 128.157C53.355 128.157 55.179 134.73 55.9349 138.017C56.9003 138.771 57.9983 139.338 59.1722 139.688C60.187 139.965 61.2696 139.841 62.1958 139.343C62.0857 139.057 61.9576 138.779 61.8124 138.51V138.51Z" fill="url(#paint12_linear_132_2351)"/>
</g>
<path d="M53.355 128.156C53.355 128.156 55.5789 136.17 56.1376 138.953C56.6963 141.735 59.2544 145.745 61.1441 144.43C63.0339 143.116 62.9298 140.645 61.8124 138.531C61.0768 137.069 60.4808 135.542 60.0322 133.968L53.355 128.156Z" stroke="#150035" stroke-miterlimit="10"/>
<path d="M49.3618 119.808C49.3618 119.808 54.5929 132.406 56.8223 135.282C59.0517 138.158 65.0387 138.399 67.6187 134.187C70.1986 129.974 67.2845 124.283 66.8409 121.72C66.3972 119.156 65.1976 114.933 65.948 114.155C66.6984 113.377 69.8426 112.818 68.6211 110.814C67.3996 108.809 65.6139 109.811 65.3948 108.365C65.1757 106.919 66.2821 103.353 62.163 102.8C58.0438 102.247 50.8079 107.138 47.9212 110.923C45.0345 114.708 44.1143 118.137 49.3618 119.808Z" fill="#150035" stroke="#150035" stroke-miterlimit="10"/>
<path d="M51.0051 116.023C51.0051 116.023 47.5761 115.766 49.2961 112.468C51.0161 109.171 62.4916 104.728 62.6341 107.166C62.7765 109.604 60.1965 110.321 60.1965 110.321" stroke="white" stroke-width="0.75" stroke-linecap="round" stroke-linejoin="round"/>
<path d="M55.6172 112.9C55.6172 112.9 53.0373 112.325 53.8973 110.463C54.7573 108.6 61.0675 107.724 59.9226 108.885C59.2439 109.565 58.471 110.145 57.6275 110.605" stroke="white" stroke-width="0.75" stroke-linecap="round" stroke-linejoin="round"/>
<path d="M63.9268 127.378C63.9268 127.378 62.037 130.38 59.0298 128.934" stroke="white" stroke-width="0.75" stroke-linecap="round" stroke-linejoin="round"/>
<path d="M66.8244 121.697C66.4081 119.304 65.3071 115.442 65.8056 114.319C65.4715 113.514 64.3212 111.635 60.925 111.46C56.5813 111.235 51.9089 113.684 51.0161 116.023C50.1232 118.361 52.243 117.118 53.0208 118.805C53.7987 120.492 51.7939 122.481 52.243 123.702C52.6922 124.924 54.8011 129.727 54.8011 129.727C55.1352 128.391 60.1472 126.162 60.1472 126.162C60.8721 126.353 61.6226 126.429 62.3711 126.386C63.3735 126.277 62.8148 125.384 62.8148 125.384L67.9473 125.69C67.5091 124.075 66.9888 122.667 66.8244 121.697Z" fill="white"/>
<g style="mix-blend-mode:multiply" opacity="0.5">
<path d="M54.9709 116.915C54.7627 114.724 53.3276 114.291 52.3745 114.253C51.7827 114.724 51.313 115.331 51.0051 116.022C50.1177 118.361 52.2321 117.118 53.0099 118.805C53.7877 120.492 51.7829 122.48 52.2321 123.702C52.6812 124.923 54.7901 129.727 54.7901 129.727C54.8997 129.3 55.4803 128.78 56.2252 128.276C55.1297 126.714 53.7932 124.814 53.0373 123.713C51.6131 121.604 55.2941 120.311 54.9709 116.915Z" fill="url(#paint13_linear_132_2351)"/>
</g>
<path d="M66.8244 121.697C66.4081 119.304 65.3071 115.442 65.8056 114.319C65.4715 113.514 64.3212 111.635 60.925 111.46C56.5813 111.235 51.9089 113.684 51.0161 116.023C50.1232 118.361 52.243 117.118 53.0208 118.805C53.7987 120.492 51.7939 122.481 52.243 123.702C52.6922 124.924 54.8011 129.727 54.8011 129.727C55.1352 128.391 60.1472 126.162 60.1472 126.162C60.8721 126.353 61.6226 126.429 62.3711 126.386C63.3735 126.277 62.8148 125.384 62.8148 125.384L67.9473 125.69C67.5091 124.075 66.9888 122.667 66.8244 121.697Z" stroke="#150035" stroke-miterlimit="10"/>
<path d="M57.392 121.161C57.5344 121.78 57.392 122.344 57.1126 122.41C56.8333 122.475 56.4608 122.026 56.3239 121.402C56.1869 120.777 56.3239 120.219 56.6032 120.153C56.8826 120.087 57.2551 120.536 57.392 121.161Z" fill="#150035"/>
<path d="M64.0199 119.797C64.1623 120.422 64.0199 120.981 63.7405 121.046C63.4612 121.112 63.0887 120.663 62.9463 120.038C62.8039 119.414 62.9463 118.855 63.2311 118.79C63.516 118.724 63.8775 119.173 64.0199 119.797Z" fill="#150035"/>
<path d="M54.8011 118.247C54.8011 118.247 55.2448 115.798 57.8083 116.801" stroke="#150035" stroke-linecap="round" stroke-linejoin="round"/>
<path d="M64.6991 115.689C62.8039 114.462 62.1356 116.237 62.1356 116.237C62.1356 116.237 60.936 117.552 61.4235 119.978" stroke="#150035" stroke-linecap="round" stroke-linejoin="round"/>
<path d="M55.1352 124.814L58.3615 123.483" stroke="#150035" stroke-width="0.5" stroke-linecap="round" stroke-linejoin="round"/>
<path d="M62.9298 122.48L65.5974 122.256" stroke="#150035" stroke-width="0.5" stroke-linecap="round" stroke-linejoin="round"/>
<path d="M144.67 81.0908C157.003 78.1231 164.594 65.7198 161.627 53.3872C158.659 41.0545 146.256 33.4627 133.923 36.4303C121.59 39.398 113.999 51.8013 116.966 64.1339C119.934 76.4666 132.337 84.0584 144.67 81.0908Z" fill="url(#paint14_linear_132_2351)" stroke="#150035" stroke-miterlimit="10"/>
<path opacity="0.3" d="M144.67 81.0908C157.003 78.1231 164.594 65.7198 161.627 53.3872C158.659 41.0545 146.256 33.4627 133.923 36.4303C121.59 39.398 113.999 51.8013 116.966 64.1339C119.934 76.4666 132.337 84.0584 144.67 81.0908Z" fill="white" stroke="#150035" stroke-miterlimit="10"/>
<path d="M158.914 54.1881C162.008 45.8463 157.476 36.4726 148.791 33.2513C140.106 30.03 130.557 34.181 127.463 42.5228C124.369 50.8646 128.902 60.2383 137.587 63.4596C146.272 66.6809 155.82 62.5299 158.914 54.1881Z" fill="#150035" stroke="#150035" stroke-miterlimit="10"/>
<path d="M158.794 45.1641C159.553 47.878 159.503 50.7546 158.651 53.4407" stroke="white" stroke-width="0.75" stroke-linecap="round" stroke-linejoin="round"/>
<path d="M157.632 55.6172C157.632 55.6172 156.613 56.9263 156.033 57.6549" stroke="white" stroke-width="0.75" stroke-linecap="round" stroke-linejoin="round"/>
<path d="M133.816 38.1914C133.816 38.1914 131.493 40.9302 132.945 44.2935" stroke="white" stroke-width="0.75" stroke-linecap="round" stroke-linejoin="round"/>
<path d="M139.299 81.7336C143.531 81.7412 147.682 80.573 151.289 78.3594C148.611 75.889 141.638 69.7377 138.351 69.4693C134.911 69.1899 124.871 72.4053 121.655 73.4734C123.809 76.0615 126.507 78.1433 129.556 79.571C132.605 80.9986 135.932 81.737 139.299 81.7336Z" fill="white" stroke="#150035" stroke-miterlimit="10"/>
<path d="M142.689 72.3673C142.782 72.0934 142.865 71.8196 142.952 71.595C141.188 70.4228 139.529 69.5683 138.351 69.4697C136.921 69.4549 135.495 69.6187 134.106 69.9572C133.498 71.6005 133.339 73.2437 132.846 76.0428C132.178 79.8278 133.18 80.9398 135.963 79.4937C138.745 78.0476 141.577 75.7032 142.689 72.3673Z" fill="white" stroke="#150035" stroke-miterlimit="10"/>
<path d="M136.012 65.3513C136.012 65.3513 136.68 66.5783 135.903 69.4705C135.125 72.3627 133.164 77.1392 134.073 78.0484C134.982 78.9577 140.465 74.8167 140.685 71.6999C140.904 68.5831 140.909 62.3496 140.909 62.3496L136.012 65.3513Z" fill="white"/>
<g style="mix-blend-mode:multiply" opacity="0.5">
<path d="M136.27 67.2223L139.786 69.9612L139.518 74.3432C140.141 73.5824 140.545 72.6656 140.685 71.6921C140.909 68.5753 140.909 62.3418 140.909 62.3418L136.012 65.3435C136.25 65.9394 136.339 66.5844 136.27 67.2223V67.2223Z" fill="url(#paint15_linear_132_2351)"/>
</g>
<path d="M136.012 65.3513C136.012 65.3513 136.68 66.5783 135.903 69.4705C135.125 72.3627 133.164 77.1392 134.073 78.0484C134.982 78.9577 140.465 74.8167 140.685 71.6999C140.904 68.5831 140.909 62.3496 140.909 62.3496L136.012 65.3513Z" stroke="#150035" stroke-miterlimit="10"/>
<path d="M130.43 51.6606C130.43 51.6606 129.653 49.6558 128.65 51.1128C127.648 52.5698 128.869 54.3391 129.428 54.3391C129.987 54.3391 130.43 51.6606 130.43 51.6606Z" fill="white" stroke="#150035" stroke-miterlimit="10"/>
<path d="M133.005 45.2041C133.005 45.2041 129.779 51.5472 129.001 55.8909C128.223 60.2347 131.449 66.7968 134.676 66.7968C137.902 66.7968 142.892 61.7903 142.892 61.7903C142.892 61.7903 147.564 61.8999 148.233 60.3442C148.901 58.7886 148.123 57.5616 146.896 57.5616H144.448C144.448 57.5616 143.779 57.8957 144.114 54.779C144.448 51.6622 145.45 50.2161 145.45 50.2161C145.45 50.2161 137.004 50.8789 133.005 45.2041Z" fill="white"/>
<g style="mix-blend-mode:multiply" opacity="0.5">
<path d="M141.561 59.7793C140.884 61.5014 139.77 63.0175 138.33 64.1787C136.889 65.3398 135.171 66.106 133.345 66.4018H133.312C133.733 66.6477 134.21 66.7816 134.698 66.7907C137.924 66.7907 142.914 61.7841 142.914 61.7841C142.914 61.7841 147.586 61.8937 148.255 60.3381C148.923 58.7824 148.145 57.5554 146.918 57.5554H144.47C144.47 57.5554 143.801 57.8896 144.135 54.7728C144.47 51.656 145.472 50.21 145.472 50.21C145.472 50.21 144.924 50.2483 144.02 50.21H143.982" fill="url(#paint16_linear_132_2351)"/>
</g>
<path d="M133.005 45.2041C133.005 45.2041 129.779 51.5472 129.001 55.8909C128.223 60.2347 131.449 66.7968 134.676 66.7968C137.902 66.7968 142.892 61.7903 142.892 61.7903C142.892 61.7903 147.564 61.8999 148.233 60.3442C148.901 58.7886 148.123 57.5616 146.896 57.5616H144.448C144.448 57.5616 143.779 57.8957 144.114 54.779C144.448 51.6622 145.45 50.2161 145.45 50.2161C145.45 50.2161 137.004 50.8789 133.005 45.2041Z" stroke="#150035" stroke-miterlimit="10"/>
<path d="M133.596 52.3026C133.465 52.8833 133.191 53.316 132.988 53.2722C132.786 53.2283 132.731 52.7244 132.862 52.1328C132.994 51.5412 133.268 51.1195 133.471 51.1633C133.673 51.2071 133.717 51.7165 133.596 52.3026Z" fill="#150035"/>
<path d="M138.828 54.6348C138.696 55.2154 138.422 55.6536 138.22 55.6043C138.017 55.555 137.962 55.0565 138.094 54.4704C138.225 53.8843 138.499 53.4516 138.702 53.5009C138.904 53.5502 138.959 54.0541 138.828 54.6348Z" fill="#150035"/>
<path d="M134.451 53.7754C134.451 53.7754 132.003 55.5556 132.337 55.9993C133.25 56.7852 134.374 57.2877 135.568 57.4454C136.571 57.4454 136.346 56.2239 136.346 56.2239" stroke="#150035" stroke-linecap="round" stroke-linejoin="round"/>
<path d="M132.671 58.8969C133.895 59.5642 135.296 59.8359 136.68 59.6748C137.252 59.6187 137.802 59.4282 138.285 59.1188C138.769 58.8094 139.173 58.3898 139.463 57.8945" stroke="#150035" stroke-linecap="round" stroke-linejoin="round"/>
<path d="M132.895 49.6562C132.895 49.6562 133.564 48.2101 134.9 49.8808" stroke="#150035" stroke-linecap="round" stroke-linejoin="round"/>
<path d="M138.57 51.6625C138.57 51.6625 140.8 50.9943 140.8 53.2182" stroke="#150035" stroke-linecap="round" stroke-linejoin="round"/>
<path d="M63.0759 81.4308C75.5924 79.3722 84.0702 67.5567 82.0116 55.0402C79.953 42.5237 68.1375 34.0459 55.621 36.1046C43.1045 38.1632 34.6267 49.9787 36.6853 62.4952C38.744 75.0117 50.5594 83.4894 63.0759 81.4308Z" fill="url(#paint17_linear_132_2351)" stroke="#150035" stroke-miterlimit="10"/>
<path opacity="0.3" d="M63.0759 81.4308C75.5924 79.3722 84.0702 67.5567 82.0116 55.0402C79.953 42.5237 68.1375 34.0459 55.621 36.1046C43.1045 38.1632 34.6267 49.9787 36.6853 62.4952C38.744 75.0117 50.5594 83.4894 63.0759 81.4308Z" fill="white" stroke="#150035" stroke-miterlimit="10"/>
<path d="M43.5446 70.4165C43.1502 71.9886 41.3535 71.7695 41.9013 73.7031C45.5714 77.9993 50.6971 80.7911 56.2971 81.5441C61.8972 82.297 67.5782 80.9582 72.2527 77.7839C73.896 75.8393 74.882 73.7962 74.9258 72.1529C75.0737 67.1354 69.7714 63.3887 69.4865 60.9731C69.2017 58.5575 71.4913 53.0963 71.4913 53.0963C71.4913 53.0963 75.501 52.5212 76.9361 48.9443C78.3712 45.3674 72.9155 37.3208 68.0405 34.8833C63.1654 32.4457 55.0037 34.5984 50.9941 40.4704C46.9845 46.3424 51.8541 51.5023 49.2742 54.2247C46.6942 56.9471 39.9622 57.0895 39.2447 62.5342C38.5271 67.979 43.9718 68.6965 43.5446 70.4165Z" fill="#150035" stroke="#150035" stroke-miterlimit="10"/>
<path d="M68.0569 40.3438C68.0569 40.3438 69.5084 43.8987 63.8556 45.9966C58.2027 48.0946 53.8425 46.9662 52.3854 50.68C50.9284 54.3938 52.0623 56.9847 52.2266 58.8964C52.3909 60.8081 47.8445 60.5068 45.1057 62.9334C42.3669 65.36 47.8445 68.2631 49.307 69.879C50.7695 71.4949 50.4354 73.916 47.85 74.7267" stroke="white" stroke-width="0.75" stroke-linecap="round" stroke-linejoin="round"/>
<path d="M50.9339 47.7777C50.9339 47.7777 53.0318 42.6068 56.2636 41.7961C59.4954 40.9854 63.0503 43.412 65.4714 41.1498C67.8926 38.8875 67.4105 37.2771 65.6303 35.9844" stroke="white" stroke-width="0.75" stroke-linecap="round" stroke-linejoin="round"/>
<path d="M70.478 42.4414C70.478 42.4414 76.1364 46.1607 74.1973 49.0693C72.2582 51.9779 71.6119 48.423 71.6119 48.423" stroke="white" stroke-width="0.75" stroke-linecap="round" stroke-linejoin="round"/>
<path d="M46.8914 78.0578C51.182 80.8307 56.275 82.0929 61.3639 81.6444C66.4528 81.196 71.2466 79.0625 74.9861 75.5819C73.295 74.0284 71.5016 72.5901 69.618 71.2765C66.0356 68.839 63.1709 67.99 61.1661 68.1214C61.1661 68.1214 59.5885 68.839 56.5813 71.7038C54.6203 73.5717 49.9096 76.3488 46.8914 78.0578Z" fill="white" stroke="#150035" stroke-miterlimit="10"/>
<path d="M66.4629 72.0592C66.4646 71.1061 66.328 70.1577 66.0576 69.2438C64.5407 68.4855 62.8615 68.1094 61.1661 68.1482C61.1661 68.1482 59.9117 68.696 57.518 70.887C57.4674 71.2922 57.4417 71.7002 57.4413 72.1085C57.4413 75.8717 59.457 78.9172 61.9493 78.9172C64.4417 78.9172 66.4629 75.8224 66.4629 72.0592Z" fill="white" stroke="#150035" stroke-miterlimit="10"/>
<path d="M60.0158 60.8135C60.0158 60.8135 60.0158 64.8286 59.5885 68.5533C59.1612 72.2781 59.7309 76.2877 62.4533 76.5726C65.1757 76.8574 64.7429 70.4157 64.4581 67.8358C64.2891 66.217 64.2891 64.585 64.4581 62.9662L60.0158 60.8135Z" fill="white"/>
<g style="mix-blend-mode:multiply" opacity="0.5">
<path d="M59.5063 69.4199L64.3431 64.7311C64.3431 64.5832 64.3431 64.4408 64.3431 64.3093L63.3571 62.4743L59.9993 60.8311C59.9993 60.8311 59.9993 64.8461 59.5721 68.5709C59.5556 68.8393 59.5282 69.1296 59.5063 69.4199Z" fill="url(#paint18_linear_132_2351)"/>
</g>
<path d="M60.0158 60.8135C60.0158 60.8135 60.0158 64.8286 59.5885 68.5533C59.1612 72.2781 59.7309 76.2877 62.4533 76.5726C65.1757 76.8574 64.7429 70.4157 64.4581 67.8358C64.2891 66.217 64.2891 64.585 64.4581 62.9662L60.0158 60.8135Z" stroke="#150035" stroke-miterlimit="10"/>
<path d="M69.7604 42.9062C69.7604 42.9062 70.0452 44.7686 65.1757 47.0638C60.3061 49.3589 57.8685 51.2158 57.4413 53.363C57.014 55.5102 56.8661 56.3757 56.8661 56.3757C56.8661 56.3757 55.8637 54.3654 54.0013 55.3678C52.1389 56.3702 53.8589 60.2429 55.5789 60.3853C57.2989 60.5277 57.7261 59.9526 57.7261 59.9526C57.7261 59.9526 63.3133 65.5397 66.6053 65.5397C69.8974 65.5397 71.1901 62.3901 71.9076 56.7756C72.6033 51.3856 69.7604 42.9062 69.7604 42.9062Z" fill="white"/>
<g style="mix-blend-mode:multiply" opacity="0.5">
<path d="M59.0079 54.3997C59.1816 52.5954 59.8236 50.8677 60.8703 49.3877C58.8271 50.7242 57.7152 51.9841 57.4413 53.3644C57.0086 55.5171 56.8661 56.3771 56.8661 56.3771C56.8661 56.3771 55.8637 54.3668 54.0014 55.3692C52.139 56.3716 53.8589 60.2443 55.5789 60.3867C57.2989 60.5291 57.7261 59.954 57.7261 59.954C57.7261 59.954 63.3133 65.5412 66.6053 65.5412C65.628 65.0554 64.7092 64.46 63.8665 63.7664C61.9165 62.3422 58.849 57.9602 59.0079 54.3997Z" fill="url(#paint19_linear_132_2351)"/>
</g>
<path d="M69.7604 42.9062C69.7604 42.9062 70.0452 44.7686 65.1757 47.0638C60.3061 49.3589 57.8685 51.2158 57.4413 53.363C57.014 55.5102 56.8661 56.3757 56.8661 56.3757C56.8661 56.3757 55.8637 54.3654 54.0013 55.3678C52.1389 56.3702 53.8589 60.2429 55.5789 60.3853C57.2989 60.5277 57.7261 59.9526 57.7261 59.9526C57.7261 59.9526 63.3133 65.5397 66.6053 65.5397C69.8974 65.5397 71.1901 62.3901 71.9076 56.7756C72.6033 51.3856 69.7604 42.9062 69.7604 42.9062Z" stroke="#150035" stroke-miterlimit="10"/>
<path d="M68.769 51.6006C68.6063 52.0447 68.5389 52.518 68.571 52.9898C68.6031 53.4616 68.734 53.9214 68.9552 54.3394C69.7056 55.7471 70.0836 56.2127 69.8042 56.5907C69.7241 56.7206 69.6192 56.8335 69.4954 56.9228C69.3716 57.0121 69.2314 57.0762 69.0829 57.1113C68.9343 57.1464 68.7803 57.1519 68.6296 57.1274C68.4789 57.1029 68.3346 57.049 68.2048 56.9686" stroke="#150035" stroke-linecap="round" stroke-linejoin="round"/>
<path d="M68.2048 60.3377C68.2048 60.3377 65.466 61.3729 64.5403 59.3955" stroke="#150035" stroke-linecap="round" stroke-linejoin="round"/>
<path d="M65.4824 53.7147C65.4824 54.3117 65.3126 54.8102 65.1045 54.8102C64.8963 54.8102 64.732 54.3282 64.732 53.7147C64.732 53.1012 64.8963 52.6191 65.1045 52.6191C65.3126 52.6191 65.4824 53.1176 65.4824 53.7147Z" fill="#150035"/>
<path d="M70.0836 53.5722C70.2923 53.5722 70.4616 53.0891 70.4616 52.4932C70.4616 51.8972 70.2923 51.4141 70.0836 51.4141C69.8749 51.4141 69.7056 51.8972 69.7056 52.4932C69.7056 53.0891 69.8749 53.5722 70.0836 53.5722Z" fill="#150035"/>
<path d="M62.76 50.5698C62.76 50.5698 63.3078 49.0635 65.5755 49.3483" stroke="#150035" stroke-linecap="round" stroke-linejoin="round"/>
<path d="M68.8621 49.0637C68.8621 49.0637 69.5194 47.4697 70.9272 48.7844" stroke="#150035" stroke-linecap="round" stroke-linejoin="round"/>
<defs>
<linearGradient id="paint0_linear_132_2351" x1="99.0464" y1="84.8916" x2="99.0464" y2="108.248" gradientUnits="userSpaceOnUse">
<stop stop-color="#9754E1"/>
<stop offset="1" stop-color="#407FED"/>
</linearGradient>
<linearGradient id="paint1_linear_132_2351" x1="179.22" y1="85.9863" x2="179.22" y2="107.196" gradientUnits="userSpaceOnUse">
<stop stop-color="#9754E1"/>
<stop offset="1" stop-color="#407FED"/>
</linearGradient>
<linearGradient id="paint2_linear_132_2351" x1="179.22" y1="91.1367" x2="179.22" y2="102.015" gradientUnits="userSpaceOnUse">
<stop stop-color="#9754E1"/>
<stop offset="1" stop-color="#407FED"/>
</linearGradient>
<linearGradient id="paint3_linear_132_2351" x1="184.85" y1="89.6514" x2="184.85" y2="92.193" gradientUnits="userSpaceOnUse">
<stop stop-color="#9754E1"/>
<stop offset="1" stop-color="#407FED"/>
</linearGradient>
<linearGradient id="paint4_linear_132_2351" x1="20.3113" y1="88.2051" x2="20.3113" y2="104.938" gradientUnits="userSpaceOnUse">
<stop stop-color="#9754E1"/>
<stop offset="1" stop-color="#407FED"/>
</linearGradient>
<linearGradient id="paint5_linear_132_2351" x1="99.6955" y1="10.5537" x2="99.6955" y2="32.2126" gradientUnits="userSpaceOnUse">
<stop stop-color="#9754E1"/>
<stop offset="1" stop-color="#407FED"/>
</linearGradient>
<linearGradient id="paint6_linear_132_2351" x1="100.089" y1="16.627" x2="100.089" y2="26.2325" gradientUnits="userSpaceOnUse">
<stop stop-color="#9754E1"/>
<stop offset="1" stop-color="#407FED"/>
</linearGradient>
<linearGradient id="paint7_linear_132_2351" x1="139.299" y1="107.312" x2="139.299" y2="153.248" gradientUnits="userSpaceOnUse">
<stop stop-color="#9754E1"/>
<stop offset="1" stop-color="#407FED"/>
</linearGradient>
<linearGradient id="paint8_linear_132_2351" x1="139.088" y1="129.75" x2="139.088" y2="146.019" gradientUnits="userSpaceOnUse">
<stop stop-color="#9754E1"/>
<stop offset="1" stop-color="#407FED"/>
</linearGradient>
<linearGradient id="paint9_linear_132_2351" x1="140.873" y1="120.501" x2="140.873" y2="136.057" gradientUnits="userSpaceOnUse">
<stop stop-color="#9754E1"/>
<stop offset="1" stop-color="#407FED"/>
</linearGradient>
<linearGradient id="paint10_linear_132_2351" x1="59.3475" y1="107.313" x2="59.3475" y2="153.249" gradientUnits="userSpaceOnUse">
<stop stop-color="#9754E1"/>
<stop offset="1" stop-color="#407FED"/>
</linearGradient>
<linearGradient id="paint11_linear_132_2351" x1="51.0407" y1="123.387" x2="51.0407" y2="128.638" gradientUnits="userSpaceOnUse">
<stop stop-color="#9754E1"/>
<stop offset="1" stop-color="#407FED"/>
</linearGradient>
<linearGradient id="paint12_linear_132_2351" x1="57.7754" y1="128.157" x2="57.7754" y2="139.833" gradientUnits="userSpaceOnUse">
<stop stop-color="#9754E1"/>
<stop offset="1" stop-color="#407FED"/>
</linearGradient>
<linearGradient id="paint13_linear_132_2351" x1="53.5083" y1="114.253" x2="53.5083" y2="129.727" gradientUnits="userSpaceOnUse">
<stop stop-color="#9754E1"/>
<stop offset="1" stop-color="#407FED"/>
</linearGradient>
<linearGradient id="paint14_linear_132_2351" x1="133.923" y1="36.4303" x2="144.67" y2="81.0908" gradientUnits="userSpaceOnUse">
<stop stop-color="#9754E1"/>
<stop offset="1" stop-color="#407FED"/>
</linearGradient>
<linearGradient id="paint15_linear_132_2351" x1="138.461" y1="62.3418" x2="138.461" y2="74.3432" gradientUnits="userSpaceOnUse">
<stop stop-color="#9754E1"/>
<stop offset="1" stop-color="#407FED"/>
</linearGradient>
<linearGradient id="paint16_linear_132_2351" x1="140.906" y1="50.21" x2="140.906" y2="66.7907" gradientUnits="userSpaceOnUse">
<stop stop-color="#9754E1"/>
<stop offset="1" stop-color="#407FED"/>
</linearGradient>
<linearGradient id="paint17_linear_132_2351" x1="55.621" y1="36.1046" x2="63.076" y2="81.4308" gradientUnits="userSpaceOnUse">
<stop stop-color="#9754E1"/>
<stop offset="1" stop-color="#407FED"/>
</linearGradient>
<linearGradient id="paint18_linear_132_2351" x1="61.9247" y1="60.8311" x2="61.9247" y2="69.4199" gradientUnits="userSpaceOnUse">
<stop stop-color="#9754E1"/>
<stop offset="1" stop-color="#407FED"/>
</linearGradient>
<linearGradient id="paint19_linear_132_2351" x1="59.9003" y1="49.3877" x2="59.9003" y2="65.5412" gradientUnits="userSpaceOnUse">
<stop stop-color="#9754E1"/>
<stop offset="1" stop-color="#407FED"/>
</linearGradient>
</defs>
</svg>
